<svg width="31" height="36" viewBox="0 0 31 36" fill="none" xmlns="http://www.w3.org/2000/svg">
<g clip-path="url(#clip0_227_16)">
<path d="M15.507 9.91407C11.1061 9.91407 7.55631 13.5211 7.55631 17.993C7.55631 22.4648 11.1061 26.0719 15.507 26.0719C19.9079 26.0719 23.4577 22.4648 23.4577 17.993C23.4577 13.5211 19.9079 9.91407 15.507 9.91407ZM15.507 23.2453C12.663 23.2453 10.338 20.8899 10.338 17.993C10.338 15.0961 12.6561 12.7406 15.507 12.7406C18.3579 12.7406 20.676 15.0961 20.676 17.993C20.676 20.8899 18.351 23.2453 15.507 23.2453ZM25.6373 9.5836C25.6373 10.6313 24.807 11.468 23.7829 11.468C22.7519 11.468 21.9284 10.6242 21.9284 9.5836C21.9284 8.54297 22.7588 7.69922 23.7829 7.69922C24.807 7.69922 25.6373 8.54297 25.6373 9.5836ZM30.9032 11.4961C30.7856 8.97188 30.2181 6.73594 28.3983 4.89376C26.5853 3.05157 24.3849 2.47501 21.9007 2.34844C19.3405 2.20079 11.6666 2.20079 9.10631 2.34844C6.62908 2.46797 4.42863 3.04454 2.60877 4.88672C0.788902 6.72891 0.228411 8.96485 0.103857 11.4891C-0.0414551 14.0906 -0.0414551 21.8883 0.103857 24.4898C0.221491 27.0141 0.788902 29.25 2.60877 31.0922C4.42863 32.9344 6.62216 33.5109 9.10631 33.6375C11.6666 33.7852 19.3405 33.7852 21.9007 33.6375C24.3849 33.518 26.5853 32.9414 28.3983 31.0922C30.2112 29.25 30.7786 27.0141 30.9032 24.4898C31.0485 21.8883 31.0485 14.0977 30.9032 11.4961ZM27.5956 27.2813C27.0559 28.6594 26.011 29.7211 24.6478 30.2766C22.6065 31.0992 17.7628 30.9094 15.507 30.9094C13.2512 30.9094 8.40051 31.0922 6.36613 30.2766C5.00988 29.7281 3.96502 28.6664 3.41837 27.2813C2.60877 25.207 2.7956 20.2852 2.7956 17.993C2.7956 15.7008 2.61569 10.7719 3.41837 8.70469C3.9581 7.32657 5.00296 6.26485 6.36613 5.70938C8.40743 4.88672 13.2512 5.07657 15.507 5.07657C17.7628 5.07657 22.6135 4.89376 24.6478 5.70938C26.0041 6.25782 27.0489 7.31954 27.5956 8.70469C28.4052 10.7789 28.2184 15.7008 28.2184 17.993C28.2184 20.2852 28.4052 25.2141 27.5956 27.2813Z" fill="#3B3B3B"/>
</g>
<defs>
<clipPath id="clip0_227_16">
<rect width="31" height="36" fill="white"/>
</clipPath>
</defs>
</svg>
