<svg width="34" height="39" viewBox="0 0 34 39" fill="none" xmlns="http://www.w3.org/2000/svg">
<path d="M7.61054 34.125H0.561607V11.342H7.61054V34.125ZM4.08228 8.2342C1.82826 8.2342 0 6.36037 0 4.09806C1.61333e-08 3.0114 0.430096 1.96924 1.19567 1.20085C1.96125 0.432455 2.99959 0.000778198 4.08228 0.000778198C5.16496 0.000778198 6.20331 0.432455 6.96888 1.20085C7.73446 1.96924 8.16455 3.0114 8.16455 4.09806C8.16455 6.36037 6.33554 8.2342 4.08228 8.2342ZM33.9924 34.125H26.9587V23.0344C26.9587 20.3912 26.9055 17.0016 23.2938 17.0016C19.6289 17.0016 19.0673 19.8733 19.0673 22.844V34.125H12.026V11.342H18.7865V14.4498H18.8852C19.8263 12.6598 22.125 10.7707 25.5546 10.7707C32.6886 10.7707 34 15.4858 34 21.61V34.125H33.9924Z" fill="#3B3B3B"/>
</svg>
