<svg width="91" height="91" viewBox="0 0 91 91" fill="none" xmlns="http://www.w3.org/2000/svg">
<path d="M8.53125 11.375C3.82129 11.375 0 15.1963 0 19.9062C0 22.59 1.26191 25.1139 3.4125 26.7312L42.0875 55.7375C44.1137 57.2482 46.8863 57.2482 48.9125 55.7375L87.5875 26.7312C89.7381 25.1139 91 22.59 91 19.9062C91 15.1963 87.1787 11.375 82.4688 11.375H8.53125ZM0 31.2812V68.25C0 74.524 5.10098 79.625 11.375 79.625H79.625C85.899 79.625 91 74.524 91 68.25V31.2812L52.325 60.2875C48.2727 63.3268 42.7273 63.3268 38.675 60.2875L0 31.2812Z" fill="#3B3B3B"/>
</svg>
