<svg width="109" height="109" viewBox="0 0 109 109" fill="none" xmlns="http://www.w3.org/2000/svg">
<path d="M36.7215 22.6064L36.7226 22.6061C38.1045 22.2286 39.5401 22.8883 40.1582 24.1542L40.2362 24.3414L45.7047 37.4658L45.7052 37.4669C46.2089 38.6743 45.8622 40.0663 44.8443 40.8985C44.8443 40.8985 44.8443 40.8986 44.8442 40.8986L38.1044 46.408L36.5908 47.6453L37.4267 49.4126C42.2265 59.56 50.44 67.7735 60.5874 72.5733L62.3524 73.4082L63.59 71.898L69.1132 65.158L69.1133 65.158L69.122 65.1472C69.9351 64.1438 71.3332 63.7886 72.5468 64.2948L72.5478 64.2953L85.6722 69.7638L85.6775 69.766C87.0524 70.3351 87.7878 71.8355 87.3939 73.2774L87.3936 73.2785L84.1144 85.3022C84.1141 85.3034 84.1138 85.3046 84.1134 85.3058C83.7528 86.6067 82.5737 87.5 81.2473 87.5C48.8053 87.5 22.5 61.1947 22.5 28.7527C22.5 27.426 23.3937 26.2468 24.6949 25.8864C24.6959 25.8861 24.6969 25.8858 24.6978 25.8856L36.7215 22.6064Z" fill="#3B3B3B" stroke="#3B3B3B" stroke-width="5"/>
</svg>
